<?xml version="1.0" encoding="UTF-8"?>
<svg id="Layer_1" data-name="Layer 1" xmlns="http://www.w3.org/2000/svg" viewBox="0 0 100 100">
  <defs>
    <style>
      .cls-1 {
        fill: #005296;
      }
    </style>
  </defs>
  <path class="cls-1" d="M87.35,52.68c-3.37,6.17-6.64,9.68-8.53,9.68-.81,0-1.71-.65,.47-6.42l2.32-5.97c1-2.61,1.42-4.31,1.42-5.67,0-2.66-1.56-4.36-4.55-4.36s-5.92,1.83-7.14,2.77c.79-1.67,2.54-5.4,3.09-6.94,.72-2.01,1.03-4.56,1.03-4.56,0,0-.88-.13-2.84-.47-1.96-.34-2.55,.05-3.84,.95-1.28,.9-4.62,8.9-4.62,8.9l-5.09,13.3c-.55-.63-1.4-1.14-2.11-1.21-3.84,6.37-6.3,6.17-8.44,6.12l6.16-24.68c1.23-5.12-1.71-9.13-6.3-9.13-4.83,0-6.54,4.41-9.24,9.23l-8.91,15.95c-2.94-1.4-5.97-2.41-9.19-2.41-7.25,0-11.04,5.17-11.04,10.43s3.55,9.38,9.86,9.38c5.97,0,10.1-3.86,13.37-9.18,2.23,1.25,4.64,2.56,7.11,3.61l-2.37,9.13,6.54,3.86,2.7-10.93c4.57,.52,7.18-1.04,10.07-5.45l-3.06,8h7.54l6.4-16.7c1.99-2.41,4.17-3.56,5.31-3.56,.71,0,1.28,.4,1.28,1.1,0,.75-.76,2.66-1.66,5.07l-.71,1.86c-3.37,8.88-1.33,12.89,3.6,12.89,5.69,0,10.24-5.62,14.03-12.59-.38-.95-1.66-1.91-2.65-2.01ZM20.1,61.06c-1.71,0-3.7-1-3.7-3.16,0-1.86,1.37-3.91,4.88-3.91,1.85,0,3.93,.6,5.97,1.45-3.22,5.12-6.35,5.62-7.16,5.62Zm21.71-4.61c-1.85-.9-3.89-2.06-5.69-3.11l11-19.46,.47,.2-5.78,22.37Z"/>
</svg>